# xmcd CD database file
#
# Track frame offsets:
#	150
#	15518
#	27734
#	41571
#	57649
#	71268
#	82673
#	95976
#	109742
#	120591
#	133837
#	146455
#	160094
#	173712
#	186944
#	200748
#
# Disc length: 2841 seconds
#
# Revision: 0
# Processed by: cddbd v1.5.2PL0 Copyright (c) Steve Scherf et al.
# Submitted via: CDex 1.51
#
DISCID=e10b1710
DTITLE=Eartha Kitt - You Can Call Me Miss Kitty [CD2)
DYEAR=2006
DGENRE=Jazz
TTITLE0=Santa Baby
TTITLE1=Under the Bridges of Paris
TTITLE2=Let's Do It (Let's Fall in Love)
TTITLE3=The Blues
TTITLE4=My Heart Belongs to Daddy
TTITLE5=Sandy's Tune
TTITLE6=Senor
TTITLE7=Smoke Gets In Your Eyes
TTITLE8=Salangadou
TTITLE9=Lovin' Spree
TTITLE10=Somebody Bad Stole De Wedding Bell
TTITLE11=Looking For A Boy
TTITLE12=Lonely Girl
TTITLE13=Easy Does It
TTITLE14=Mink Shmink
TTITLE15=Apres Moi
EXTD=YEAR: 2006
EXTT0=
EXTT1=
EXTT2=
EXTT3=
EXTT4=
EXTT5=
EXTT6=
EXTT7=
EXTT8=
EXTT9=
EXTT10=
EXTT11=
EXTT12=
EXTT13=
EXTT14=
EXTT15=
PLAYORDER=
